<svg id="Layer_1" data-name="Layer 1" xmlns="http://www.w3.org/2000/svg" viewBox="0 0 1280 769"><defs><style>.cls-1{fill:#007bff;}</style></defs><path class="cls-1" d="M305,353.38c-4.2-7-15.74-13.64-29-13.64-17.13,0-25.35,7.17-25.35,16.26,0,10.66,12.59,13.64,27.28,15.39,25.53,3.14,49.31,9.79,49.31,39,0,27.28-24.13,39-51.41,39-25,0-44.24-7.69-53.33-30.07l19.23-10c5.42,13.46,19.58,19.41,34.45,19.41,14.51,0,28.15-5.07,28.15-18.36,0-11.54-12.07-16.26-28.33-18-25-3-48.08-9.62-48.08-37.07,0-25.18,24.83-35.5,47.38-35.67,19.06,0,38.82,5.42,48.09,24.3Z"/><path class="cls-1" d="M369,360v45.11c0,13.12,7.17,23.08,20.81,23.08,13.12,0,22-11,22-24.13V360H433V446.4H413.93l-1.4-11.72c-8.91,8.75-17.13,12.94-29.2,12.94-20.63,0-35.67-15.56-35.67-42.31V360Z"/><path class="cls-1" d="M509.23,446.22V400.06c0-11.36-6-21.68-17.66-21.68-11.54,0-18.36,10.32-18.36,21.68v46.16H451.88V359.85h19.76l1.57,10.49c4.54-8.75,14.51-11.89,22.73-11.89,10.32,0,20.63,4.19,25.53,16.08,7.69-12.24,17.66-15.73,28.85-15.73,24.48,0,36.55,15,36.55,40.91v46.51H565.53V399.71c0-11.36-4.72-21-16.26-21s-18.71,10-18.71,21.33v46.16Z"/><path class="cls-1" d="M818.16,410.73c1.4,10.66,10.66,18.36,25.7,18.36,7.87,0,18.19-3,23.08-8l13.64,13.46c-9.09,9.44-24,14-37.07,14-29.72,0-47.38-18.36-47.38-46,0-26.23,17.83-45.11,45.81-45.11,28.85,0,46.86,17.83,43.54,53.33ZM865,393.07c-1.4-11.19-10.14-16.79-22.38-16.79-11.54,0-21,5.6-24.13,16.79Z"/><path class="cls-1" d="M920.1,410.73c1.4,10.66,10.66,18.36,25.7,18.36,7.87,0,18.19-3,23.08-8l13.64,13.46c-9.09,9.44-23.95,14-37.07,14-29.72,0-47.39-18.36-47.39-46,0-26.23,17.84-45.11,45.82-45.11,28.85,0,46.86,17.83,43.54,53.33ZM967,393.07c-1.4-11.19-10.14-16.79-22.38-16.79-11.54,0-21,5.6-24.13,16.79Z"/><path class="cls-1" d="M1030.26,335.71v24.48H1054v18.36h-24V415.8c0,8.22,4.55,12.24,11.19,12.24a24.46,24.46,0,0,0,10.32-2.62l5.94,18.18a47.51,47.51,0,0,1-17.66,3.67c-18.71.7-30.95-10-30.95-31.47V378.55H992.84V360.19h16.08V338Z"/><path class="cls-1" d="M675.6,320.32c23.32,42,46.53,83.78,69.91,125.88-.9.09-1.53.21-2.15.21-7,0-14.09-.05-21.14.06a3.35,3.35,0,0,1-3.39-2q-10.07-18-20.28-35.82c-.41-.72-.87-1.42-1.5-2.43l-10.56,15.46-.39-.15c.89-2.75,1.83-5.49,2.62-8.27a3.92,3.92,0,0,0,0-2.62c-5.49-10.09-11.08-20.12-16.88-30.6-.74,1.19-1.31,2.07-1.85,3q-18.43,30.66-36.8,61.34a3.85,3.85,0,0,1-3.88,2.15c-8.16-.08-16.31,0-25.08,0Z"/><path class="cls-1" d="M739.12,388c-1.73,2.85-3.31,5.29-4.68,7.84a3.72,3.72,0,0,0,0,2.42c1.74,6.79,3.54,13.56,5,20.47-.29-.43-.62-.85-.87-1.31C732,405.29,725.34,393.19,718.79,381a3.92,3.92,0,0,1-.19-3.2c7.68-13.79,15.48-27.51,23.26-41.23a6.36,6.36,0,0,1,.74-.82l61.33,110.4c-1,.1-1.74.22-2.45.23-5.84,0-11.68-.05-17.53,0a3.53,3.53,0,0,1-3.63-2.07c-5.7-10.27-11.55-20.46-17.35-30.68-.46-.8-.93-1.59-1.6-2.72-3.09,4.52-6,8.79-8.94,13.06l-.51-.22c.71-2.14,1.48-4.26,2.07-6.43a3.91,3.91,0,0,0,0-2.64C749.15,406,744.26,397.21,739.12,388Z"/><path class="cls-1" d="M670.72,403.25v16h6.55l-14,17.25.23.41,18.63-9c.71,3,1.36,5.68,2.1,8.78l10.93-12.34c4.14,7.41,8.14,14.54,12.29,22H644l26.12-43.22Z"/></svg>
